# xmcd
#
# Track frame offsets: 
#        150
#        10200
#        21450
#        31950
#        42300
#        54000
#        63900
#        75000
#        84300
#        98550
#        107700
#        118050
#
# Disc length: 1732 seconds
#
# Revision: 0
# Processed by: cddbd v1.5.2PL0 Copyright (c) Steve Scherf et al.
# Submitted via: ExactAudioCopy v0.99pb4
#
DISCID=8006c20c
DTITLE=Jacky Giordano - Pop In ... Devil's Train
DYEAR=1976
DGENRE=Jazz
TTITLE0=Betelgueuze In The Sky
TTITLE1=Moving Grooving
TTITLE2=The Big Mameluk
TTITLE3=Terefic War
TTITLE4=Tchu Tchu Face
TTITLE5=Bombe Hachee
TTITLE6=Worry For Nothiing
TTITLE7=Devil's Train
TTITLE8=Sex Girl
TTITLE9=Tabla Minor
TTITLE10=Dont Be Cool
TTITLE11=Blue Circuit
EXTD=
EXTT0=
EXTT1=
EXTT2=
EXTT3=
EXTT4=
EXTT5=
EXTT6=
EXTT7=
EXTT8=
EXTT9=
EXTT10=
EXTT11=
PLAYORDER=
